<svg xmlns="http://www.w3.org/2000/svg" viewBox="0 0 1024 1024"><defs><style>.cls-1,.cls-2{fill:none;stroke:#fff;stroke-linecap:round;stroke-width:45px;}.cls-1{stroke-miterlimit:10;}.cls-2{stroke-linejoin:round;}</style></defs><title>Logo_A_</title><g id="Layer_2" data-name="Layer 2"><path class="cls-1" d="M710.2,800.51a350.3,350.3,0,0,1-367.45,17.91"/><path class="cls-1" d="M170,586.8a351.13,351.13,0,0,1-8-74.8c0-154.32,99.88-285.32,238.52-331.87"/><path class="cls-1" d="M400.52,180.13a112.15,112.15,0,0,1-1-15.09c0-61.6,50.08-111.54,111.85-111.54S623.2,103.44,623.2,165a111.88,111.88,0,0,1-222.68,15.09Z"/><line class="cls-2" x1="170.01" y1="586.81" x2="170.01" y2="586.8"/></g><g id="Layer_4" data-name="Layer 4"><path class="cls-1" d="M717.65,796A111.85,111.85,0,0,1,859.27,623.43c50.08,35.87,61.52,105.66,25.56,155.88S779.11,841.17,729,805.3A111.15,111.15,0,0,1,717.65,796Z"/><path class="cls-1" d="M227.14,309.09A348.41,348.41,0,0,0,161.73,506"/><path class="cls-1" d="M846.41,615.47c42.88-139.82-5.47-297.3-130.93-387.15"/></g></svg>